<svg width="24" height="23" fill="none" xmlns="http://www.w3.org/2000/svg"><path d="M2 22v-2.222h17.778V22H2Zm4.444-4.444c-1.222 0-2.268-.436-3.138-1.306C2.436 15.38 2 14.333 2 13.111V2h17.778a2.14 2.14 0 0 1 1.57.653c.435.436.653.959.652 1.57v3.333c0 .61-.218 1.134-.653 1.57a2.136 2.136 0 0 1-1.57.652h-2.221v3.333c0 1.222-.436 2.269-1.306 3.139-.87.87-1.917 1.306-3.139 1.306H6.444Zm0-2.223h6.667a2.14 2.14 0 0 0 1.57-.653c.436-.436.653-.958.652-1.569V4.222H4.223v8.89c0 .61.217 1.134.653 1.57.435.435.958.652 1.568.651Zm11.112-7.777h2.222V4.222h-2.222v3.334Z" fill="#593F0D"/></svg>