<svg width="24" height="20" fill="none" xmlns="http://www.w3.org/2000/svg"><path d="M23.46 5.465a1.518 1.518 0 0 0-1.717-.224l-4.537 2.314-3.871-6.58a1.576 1.576 0 0 0-.569-.565 1.532 1.532 0 0 0-1.533 0 1.58 1.58 0 0 0-.569.565l-3.87 6.58-4.54-2.313a1.528 1.528 0 0 0-1.715.22 1.63 1.63 0 0 0-.462 1.703l3.581 11.217a1.2 1.2 0 0 0 .265.452c.12.128.266.228.43.29a1.137 1.137 0 0 0 1-.088c.023-.014 2.425-1.416 6.645-1.416s6.621 1.404 6.64 1.415a1.144 1.144 0 0 0 1.435-.198c.12-.128.211-.284.265-.453l3.58-11.211c.1-.299.108-.621.027-.926a1.587 1.587 0 0 0-.484-.782Zm-4.928 10.92c-1.291-.507-3.515-1.14-6.534-1.14-3.02 0-5.243.635-6.535 1.142L2.85 8.202 6.385 10c.351.178.755.214 1.131.102s.698-.364.901-.706l3.58-6.085 3.581 6.086c.204.342.525.594.901.706.377.111.78.075 1.131-.103l3.534-1.8-2.612 8.185Z" fill="#593F0D"/></svg>