<svg width="24" height="22" fill="none" xmlns="http://www.w3.org/2000/svg"><path d="M19.2 0a.887.887 0 0 1 .727.374l.066.106 3.916 7.368.045.114.015.048.024.125.007.115a.93.93 0 0 1-.032.244l-.057.153-.045.085a.928.928 0 0 1-.09.124l.072-.095-.03.043-11.102 12.84a.873.873 0 0 1-.356.283l-.118.04-.093.02L12 22l-.12-.007-.141-.032a.853.853 0 0 1-.21-.093l-.01-.009a.81.81 0 0 1-.156-.127L.214 8.842l-.03-.038-.048-.072a.922.922 0 0 1-.128-.368L0 8.25l.004-.08.015-.11a.902.902 0 0 1 .029-.105l.026-.072.034-.07L4.008.48a.911.911 0 0 1 .669-.47L4.799 0h14.402Zm-3.602 9.167h-7.2l3.6 9.395 3.6-9.395Zm-9.13 0H2.89l6.422 7.423-2.846-7.423Zm14.639 0H17.53l-2.841 7.419 6.417-7.42ZM8.366 1.833H5.335l-2.926 5.5h4.229l1.728-5.5Zm5.377 0h-3.487l-1.73 5.5h6.944l-1.729-5.5h.002Zm4.92 0h-3.03l1.728 5.5h4.227l-2.925-5.5Z" fill="#593F0D"/></svg>