<svg width="24" height="22" fill="none" xmlns="http://www.w3.org/2000/svg"><path d="M24 11a.779.779 0 0 1-.234.556.808.808 0 0 1-.566.23h-1.667a4.704 4.704 0 0 1-1.636 2.813 4.86 4.86 0 0 1-3.097 1.115h-4v2.357h2.4a3.23 3.23 0 0 1 2.263.921c.6.59.937 1.389.937 2.222a.779.779 0 0 1-.234.556.808.808 0 0 1-1.132 0 .779.779 0 0 1-.234-.556c0-.416-.169-.816-.469-1.11a1.61 1.61 0 0 0-1.131-.461h-2.4v1.571a.779.779 0 0 1-.234.556.808.808 0 0 1-1.132 0 .779.779 0 0 1-.234-.556v-1.571H8.8c-.424 0-.831.165-1.131.46-.3.295-.469.694-.469 1.111a.779.779 0 0 1-.234.556.808.808 0 0 1-1.132 0 .779.779 0 0 1-.234-.556c0-.833.337-1.633.937-2.222a3.23 3.23 0 0 1 2.263-.92h2.4v-2.358h-4A4.86 4.86 0 0 1 4.103 14.6a4.703 4.703 0 0 1-1.636-2.813H.8a.808.808 0 0 1-.566-.23.779.779 0 0 1 0-1.112.808.808 0 0 1 .566-.23h2.4a.81.81 0 0 1 .566.23c.15.148.234.348.234.556 0 .834.337 1.633.937 2.222.6.59 1.414.92 2.263.92h9.6a3.23 3.23 0 0 0 2.263-.92c.6-.59.937-1.388.937-2.222 0-.208.084-.408.234-.556a.808.808 0 0 1 .566-.23h2.4a.81.81 0 0 1 .566.23c.15.148.234.348.234.556ZM5.991 12.03a1.563 1.563 0 0 1-.375-1.252l1.372-9.429c.056-.373.247-.715.537-.963C7.815.14 8.187.002 8.572 0h6.856c.385.002.756.139 1.047.386.29.248.481.59.537.963l1.372 9.429a1.545 1.545 0 0 1-.375 1.252 1.624 1.624 0 0 1-1.209.542H7.2a1.625 1.625 0 0 1-1.209-.543ZM7.2 11h9.6l-1.372-9.429H8.571L7.2 11Z" fill="#593F0D"/></svg>