<svg width="24" height="24" fill="none" xmlns="http://www.w3.org/2000/svg"><g clip-path="url(#a)"><path d="M20.46 3.492A11.78 11.78 0 0 0 12.048 0C5.496 0 .156 5.34.156 11.892c0 2.1.552 4.14 1.584 5.94L.06 24l6.3-1.656a11.895 11.895 0 0 0 5.688 1.452c6.552 0 11.892-5.34 11.892-11.892 0-3.18-1.236-6.168-3.48-8.412ZM12.048 21.78a9.914 9.914 0 0 1-5.04-1.38l-.36-.216-3.744.984.996-3.648-.24-.372a9.917 9.917 0 0 1-1.512-5.256c0-5.448 4.44-9.888 9.888-9.888a9.784 9.784 0 0 1 6.984 2.904 9.82 9.82 0 0 1 2.892 6.996c.024 5.448-4.416 9.876-9.864 9.876Zm5.424-7.392c-.3-.144-1.764-.864-2.028-.972-.276-.096-.468-.144-.672.144-.204.3-.768.972-.936 1.164-.168.204-.348.228-.648.072-.3-.144-1.26-.468-2.388-1.476-.888-.792-1.476-1.764-1.656-2.064-.168-.3-.024-.456.132-.612.132-.132.3-.348.444-.516.144-.168.204-.3.3-.492.096-.204.048-.372-.024-.516a98.805 98.805 0 0 1-.912-2.208c-.24-.576-.492-.504-.672-.516h-.576c-.204 0-.516.072-.792.372-.264.3-1.032 1.02-1.032 2.484s1.068 2.88 1.212 3.072c.144.204 2.1 3.204 5.076 4.488.708.312 1.26.492 1.692.624.708.228 1.356.192 1.872.12.576-.084 1.764-.72 2.004-1.416.252-.696.252-1.284.168-1.416-.084-.132-.264-.192-.564-.336Z" fill="#593F0D"/></g><defs><clipPath id="a"><path fill="#fff" d="M0 0h24v24H0z"/></clipPath></defs></svg>