<svg width="24" height="23" viewBox="0 0 24 23" fill="none" xmlns="http://www.w3.org/2000/svg">
<path d="M2 22V19.7778H19.7778V22H2ZM6.44444 17.5556C5.22222 17.5556 4.17593 17.1204 3.30556 16.25C2.43519 15.3796 2 14.3333 2 13.1111V2H19.7778C20.3889 2 20.9122 2.21778 21.3478 2.65333C21.7833 3.08889 22.0007 3.61185 22 4.22222V7.55556C22 8.16667 21.7822 8.69 21.3467 9.12556C20.9111 9.56111 20.3881 9.77852 19.7778 9.77778H17.5556V13.1111C17.5556 14.3333 17.1204 15.3796 16.25 16.25C15.3796 17.1204 14.3333 17.5556 13.1111 17.5556H6.44444ZM6.44444 15.3333H13.1111C13.7222 15.3333 14.2456 15.1156 14.6811 14.68C15.1167 14.2444 15.3341 13.7215 15.3333 13.1111V4.22222H4.22222V13.1111C4.22222 13.7222 4.44 14.2456 4.87556 14.6811C5.31111 15.1167 5.83407 15.3341 6.44444 15.3333ZM17.5556 7.55556H19.7778V4.22222H17.5556V7.55556Z" fill="#593F0D"/>
</svg>
