<svg width="24" height="20" viewBox="0 0 24 20" fill="none" xmlns="http://www.w3.org/2000/svg">
<path d="M23.4607 5.46489C23.2289 5.25707 22.9417 5.12475 22.6358 5.08491C22.33 5.04506 22.0195 5.0995 21.7441 5.24125L17.2057 7.5549L13.335 0.975152C13.1963 0.739725 13.0005 0.544956 12.7665 0.409749C12.5326 0.274543 12.2684 0.203491 11.9996 0.203491C11.7309 0.203491 11.4667 0.274543 11.2327 0.409749C10.9987 0.544956 10.8029 0.739725 10.6642 0.975152L6.79354 7.5549L2.25419 5.24224C1.97908 5.10169 1.66945 5.04756 1.3643 5.08665C1.05916 5.12574 0.77215 5.25631 0.539439 5.46191C0.306729 5.66751 0.138724 5.93894 0.0565909 6.24201C-0.0255421 6.54508 -0.0181295 6.86623 0.0778951 7.165L3.65828 18.3819C3.71221 18.5509 3.80254 18.7054 3.92263 18.8339C4.04271 18.9624 4.18947 19.0617 4.35209 19.1245C4.51472 19.1873 4.68905 19.2119 4.86222 19.1966C5.0354 19.1813 5.20301 19.1264 5.35268 19.0361C5.3759 19.0222 7.77767 17.62 11.9977 17.62C16.2177 17.62 18.6195 19.0242 18.6379 19.0351C18.7875 19.1266 18.9555 19.1825 19.1292 19.1986C19.3029 19.2147 19.4779 19.1906 19.6412 19.1281C19.8046 19.0655 19.952 18.9661 20.0727 18.8373C20.1933 18.7085 20.284 18.5535 20.3381 18.3839L23.9184 7.17292C24.0173 6.87399 24.0265 6.55167 23.9449 6.24734C23.8634 5.94301 23.6948 5.67054 23.4607 5.46489ZM18.5324 16.385C17.2405 15.8783 15.0168 15.245 11.9977 15.245C8.97855 15.245 6.75484 15.8803 5.46299 16.3869L2.85028 8.20208L6.38518 10.0002C6.73649 10.1775 7.14001 10.2137 7.51617 10.1018C7.89233 9.98987 8.21383 9.73788 8.4173 9.39552L11.9977 3.31057L15.5781 9.39651C15.7815 9.73888 16.1031 9.9908 16.4793 10.1026C16.8555 10.2143 17.259 10.1778 17.6102 10.0002L21.1441 8.19912L18.5324 16.385Z" fill="#593F0D"/>
</svg>
