<svg width="24" height="24" viewBox="0 0 24 24" fill="none" xmlns="http://www.w3.org/2000/svg">
<path d="M2 6.16667V17.8333C2 18.9384 2.43899 19.9982 3.22039 20.7796C4.00179 21.561 5.0616 22 6.16667 22H17.8333C18.9384 22 19.9982 21.561 20.7796 20.7796C21.561 19.9982 22 18.9384 22 17.8333V6.16667C22 5.0616 21.561 4.00179 20.7796 3.22039C19.9982 2.43899 18.9384 2 17.8333 2H6.16667C5.0616 2 4.00179 2.43899 3.22039 3.22039C2.43899 4.00179 2 5.0616 2 6.16667ZM3.66667 12.8333H11.1667V20.3333H6.16667C5.50363 20.3333 4.86774 20.0699 4.3989 19.6011C3.93006 19.1323 3.66667 18.4964 3.66667 17.8333V12.8333ZM11.1667 11.1667H3.66667V6.16667C3.66667 5.50363 3.93006 4.86774 4.3989 4.3989C4.86774 3.93006 5.50363 3.66667 6.16667 3.66667H11.1667V11.1667ZM12.8333 12.8333H20.3333V17.8333C20.3333 18.4964 20.0699 19.1323 19.6011 19.6011C19.1323 20.0699 18.4964 20.3333 17.8333 20.3333H12.8333V12.8333ZM20.3333 11.1667H12.8333V3.66667H17.8333C18.4964 3.66667 19.1323 3.93006 19.6011 4.3989C20.0699 4.86774 20.3333 5.50363 20.3333 6.16667V11.1667Z" fill="#593F0D"/>
</svg>
