<svg width="24" height="22" viewBox="0 0 24 22" fill="none" xmlns="http://www.w3.org/2000/svg">
<path d="M19.2007 2.43295e-07C19.3421 -0.000104636 19.4815 0.0337001 19.6076 0.0986766C19.7338 0.163653 19.8431 0.257974 19.9268 0.374L19.9928 0.480333L23.9088 7.84789L23.9544 7.96156L23.9688 8.01044L23.9928 8.13511L24 8.25C24.0001 8.3326 23.9892 8.41482 23.9676 8.49444L23.9112 8.64722L23.8656 8.73156C23.8391 8.77559 23.8089 8.8173 23.7756 8.85622L23.8476 8.76089L23.8176 8.80367L12.7165 21.6431C12.6243 21.768 12.5013 21.8658 12.36 21.9267L12.2424 21.967L12.1488 21.9878L12.0012 22L11.8812 21.9927L11.7396 21.9609C11.6662 21.9395 11.596 21.9082 11.5308 21.868L11.52 21.8594C11.463 21.8238 11.4106 21.7811 11.3639 21.7323L0.214821 8.84278L0.183619 8.80367L0.135613 8.73156C0.0676151 8.61972 0.0242154 8.49421 0.0084008 8.36367L0 8.25L0.00360039 8.16933L0.019202 8.06056C0.0266792 8.02495 0.0362983 7.98985 0.0480048 7.95544L0.0744075 7.88333L0.108011 7.81367L4.0084 0.480333C4.07565 0.353782 4.1712 0.24513 4.28733 0.16317C4.40346 0.0812095 4.53691 0.0282427 4.67687 0.00855576L4.79928 2.43295e-07H19.2007ZM15.598 9.16667H8.39844L11.9988 18.5619L15.598 9.16667ZM6.46745 9.16667H2.89109L9.31293 16.5904L6.46745 9.16667ZM21.1065 9.16667H17.5314L14.6895 16.5856L21.1065 9.16667ZM8.36604 1.83333H5.33453L2.40864 7.33333H6.63786L8.36604 1.83333ZM13.7426 1.83333H10.2562L8.52685 7.33333H15.4695L13.7414 1.83333H13.7426ZM18.6631 1.83333H15.6328L17.3609 7.33333H21.5878L18.6631 1.83333Z" fill="#593F0D"/>
</svg>
