<svg width="24" height="22" viewBox="0 0 24 22" fill="none" xmlns="http://www.w3.org/2000/svg">
<path d="M24 11C24 11.2084 23.9157 11.4082 23.7657 11.5556C23.6157 11.7029 23.4122 11.7857 23.2 11.7857H21.533C21.3424 12.8836 20.7629 13.8799 19.8969 14.5988C19.0308 15.3177 17.9339 15.7128 16.8 15.7143H12.8V18.0714H15.2C16.0487 18.0714 16.8626 18.4026 17.4627 18.992C18.0629 19.5814 18.4 20.3807 18.4 21.2143C18.4 21.4227 18.3157 21.6225 18.1657 21.7699C18.0157 21.9172 17.8122 22 17.6 22C17.3878 22 17.1843 21.9172 17.0343 21.7699C16.8843 21.6225 16.8 21.4227 16.8 21.2143C16.8 20.7975 16.6314 20.3978 16.3314 20.1031C16.0313 19.8084 15.6243 19.6429 15.2 19.6429H12.8V21.2143C12.8 21.4227 12.7157 21.6225 12.5657 21.7699C12.4157 21.9172 12.2122 22 12 22C11.7878 22 11.5843 21.9172 11.4343 21.7699C11.2843 21.6225 11.2 21.4227 11.2 21.2143V19.6429H8.8C8.37565 19.6429 7.96869 19.8084 7.66863 20.1031C7.36857 20.3978 7.2 20.7975 7.2 21.2143C7.2 21.4227 7.11571 21.6225 6.96569 21.7699C6.81566 21.9172 6.61217 22 6.4 22C6.18783 22 5.98434 21.9172 5.83431 21.7699C5.68429 21.6225 5.6 21.4227 5.6 21.2143C5.6 20.3807 5.93714 19.5814 6.53726 18.992C7.13737 18.4026 7.95131 18.0714 8.8 18.0714H11.2V15.7143H7.2C6.06607 15.7128 4.96919 15.3177 4.10312 14.5988C3.23706 13.8799 2.65756 12.8836 2.467 11.7857H0.8C0.587827 11.7857 0.384344 11.7029 0.234315 11.5556C0.0842854 11.4082 0 11.2084 0 11C0 10.7916 0.0842854 10.5918 0.234315 10.4444C0.384344 10.2971 0.587827 10.2143 0.8 10.2143H3.2C3.41217 10.2143 3.61566 10.2971 3.76569 10.4444C3.91571 10.5918 4 10.7916 4 11C4 11.8335 4.33714 12.6329 4.93726 13.2223C5.53737 13.8117 6.35131 14.1429 7.2 14.1429H16.8C17.6487 14.1429 18.4626 13.8117 19.0627 13.2223C19.6629 12.6329 20 11.8335 20 11C20 10.7916 20.0843 10.5918 20.2343 10.4444C20.3843 10.2971 20.5878 10.2143 20.8 10.2143H23.2C23.4122 10.2143 23.6157 10.2971 23.7657 10.4444C23.9157 10.5918 24 10.7916 24 11ZM5.991 12.0293C5.84092 11.8593 5.72977 11.6595 5.66508 11.4437C5.60038 11.2278 5.58364 11.0008 5.616 10.778L6.988 1.34946C7.04398 0.975615 7.2346 0.633872 7.52523 0.38627C7.81587 0.138667 8.18726 0.00161792 8.572 0H15.428C15.8127 0.00161792 16.1841 0.138667 16.4748 0.38627C16.7654 0.633872 16.956 0.975615 17.012 1.34946L18.384 10.778C18.4164 11.0009 18.3996 11.228 18.3349 11.4439C18.2701 11.6599 18.1589 11.8597 18.0087 12.0297C17.8585 12.1998 17.6728 12.3361 17.4643 12.4296C17.2558 12.5231 17.0292 12.5714 16.8 12.5714H7.2C6.97069 12.5714 6.74407 12.523 6.53547 12.4295C6.32688 12.3359 6.1412 12.1995 5.991 12.0293ZM7.2 11H16.8L15.428 1.57143H8.571L7.2 11Z" fill="#593F0D"/>
</svg>
