<svg width="20" height="24" viewBox="0 0 20 24" fill="none" xmlns="http://www.w3.org/2000/svg">
<path d="M14 11.999C14 12.2643 13.8946 12.5187 13.7071 12.7063C13.5196 12.8939 13.2652 12.9993 13 12.9993C12.7348 12.9993 12.4804 12.8939 12.2929 12.7063C12.1054 12.5187 12 12.2643 12 11.999C12 11.7337 12.1054 11.4793 12.2929 11.2917C12.4804 11.1041 12.7348 10.9987 13 10.9987C13.2652 10.9987 13.5196 11.1041 13.7071 11.2917C13.8946 11.4793 14 11.7337 14 11.999ZM9.196 0.0194019C9.05098 -0.00959352 8.90133 -0.00605149 8.75784 0.0297724C8.61435 0.0655963 8.48059 0.13281 8.3662 0.226572C8.25181 0.320334 8.15963 0.438309 8.0963 0.571998C8.03298 0.705686 8.00009 0.851761 8 0.999696V23.0003C8.00009 23.1482 8.03298 23.2943 8.0963 23.428C8.15963 23.5617 8.25181 23.6797 8.3662 23.7734C8.48059 23.8672 8.61435 23.9344 8.75784 23.9702C8.90133 24.0061 9.05098 24.0096 9.196 23.9806L19.196 21.98C19.4226 21.9347 19.6265 21.8123 19.7731 21.6336C19.9197 21.4548 19.9999 21.2309 20 20.9997V3.0003C19.9999 2.76914 19.9197 2.54516 19.7731 2.36644C19.6265 2.18773 19.4226 2.06531 19.196 2.02L9.196 0.0194019ZM10 21.7799V2.22006L18 3.82054V20.1795L10 21.7799ZM6 22V19.9994H2V4.0006H6V2H1C0.734784 2 0.48043 2.10539 0.292893 2.29298C0.105357 2.48057 0 2.735 0 3.0003V20.9997C0 21.265 0.105357 21.5194 0.292893 21.707C0.48043 21.8946 0.734784 22 1 22H6Z" fill="#593F0D"/>
</svg>
