<svg width="30" height="17" viewBox="0 0 30 17" fill="none" xmlns="http://www.w3.org/2000/svg">
<path d="M15 17C14.6413 17 14.2933 16.9351 13.9561 16.8053C13.6188 16.6755 13.339 16.5025 13.1166 16.2862L0.739909 4.34732C0.246636 3.87149 0 3.26589 0 2.53053C0 1.79516 0.246636 1.18956 0.739909 0.713738C1.23318 0.237912 1.86099 0 2.62332 0C3.38565 0 4.01345 0.237912 4.50673 0.713738L15 10.8359L25.4933 0.713738C25.9865 0.237912 26.6143 0 27.3767 0C28.139 0 28.7668 0.237912 29.2601 0.713738C29.7534 1.18956 30 1.79516 30 2.53053C30 3.26589 29.7534 3.87149 29.2601 4.34732L16.8834 16.2862C16.6143 16.5458 16.3229 16.73 16.009 16.839C15.6951 16.948 15.3587 17.0017 15 17Z" fill="#593F0D"/>
</svg>
