<svg width="26" height="24" viewBox="0 0 26 24" fill="none" xmlns="http://www.w3.org/2000/svg">
<g clip-path="url(#clip0_11201_325)">
<path d="M24.07 -0.00400277C23.749 0.019353 23.4339 0.0946656 23.137 0.218997H23.133C22.848 0.331997 21.493 0.901997 19.433 1.766L12.051 4.875C6.754 7.105 1.547 9.301 1.547 9.301L1.609 9.277C1.609 9.277 1.25 9.395 0.874997 9.652C0.643325 9.79942 0.44397 9.99231 0.288997 10.219C0.104997 10.489 -0.0430034 10.902 0.0119966 11.329C0.101997 12.051 0.569996 12.484 0.905996 12.723C1.246 12.965 1.57 13.078 1.57 13.078H1.578L6.461 14.723C6.68 15.426 7.949 19.598 8.254 20.559C8.434 21.133 8.609 21.492 8.828 21.766C8.934 21.906 9.058 22.023 9.207 22.117C9.28446 22.1621 9.36705 22.1976 9.453 22.223L9.403 22.211C9.418 22.215 9.43 22.227 9.441 22.231C9.481 22.242 9.508 22.246 9.559 22.254C10.332 22.488 10.953 22.008 10.953 22.008L10.988 21.98L13.871 19.355L18.703 23.062L18.813 23.109C19.82 23.551 20.84 23.305 21.379 22.871C21.922 22.434 22.133 21.875 22.133 21.875L22.168 21.785L25.902 2.656C26.008 2.184 26.035 1.742 25.918 1.313C25.7973 0.878823 25.5188 0.505404 25.137 0.265997C24.8164 0.0711121 24.4447 -0.0229542 24.07 -0.00400277ZM23.969 2.046C23.965 2.109 23.977 2.102 23.949 2.223V2.234L20.25 21.164C20.234 21.191 20.207 21.25 20.133 21.309C20.055 21.371 19.993 21.41 19.668 21.281L13.758 16.75L10.188 20.004L10.938 15.214L20.594 6.214C20.992 5.844 20.859 5.766 20.859 5.766C20.887 5.312 20.258 5.633 20.258 5.633L8.082 13.176L8.078 13.156L2.242 11.191V11.187L2.227 11.184C2.23723 11.1806 2.24725 11.1766 2.257 11.172L2.289 11.156L2.32 11.145C2.32 11.145 7.531 8.949 12.828 6.719C15.48 5.602 18.152 4.477 20.207 3.609C21.4257 3.096 22.6457 2.586 23.867 2.079C23.949 2.047 23.91 2.046 23.969 2.046Z" fill="#593F0D"/>
</g>
<defs>
<clipPath id="clip0_11201_325">
<rect width="26" height="24" fill="white"/>
</clipPath>
</defs>
</svg>
